<?xml version="1.0" encoding="UTF-8" standalone="no"?>
<!-- Created with Inkscape (http://www.inkscape.org/) -->

<svg
   xmlns:dc="http://purl.org/dc/elements/1.1/"
   xmlns:cc="http://creativecommons.org/ns#"
   xmlns:rdf="http://www.w3.org/1999/02/22-rdf-syntax-ns#"
   xmlns:svg="http://www.w3.org/2000/svg"
   xmlns="http://www.w3.org/2000/svg"
   xmlns:sodipodi="http://sodipodi.sourceforge.net/DTD/sodipodi-0.dtd"
   xmlns:inkscape="http://www.inkscape.org/namespaces/inkscape"
   width="210mm"
   height="297mm"
   viewBox="0 0 744.09448819 1052.3622047"
   id="svg2"
   version="1.1"
   inkscape:version="0.48.4 r9939"
   sodipodi:docname="alienShip3.svg"
   inkscape:export-filename="/user/msen/home/Desktop/test/Alienvation/img/alienShip3.png"
   inkscape:export-xdpi="21.586901"
   inkscape:export-ydpi="21.586901">
  <defs
     id="defs4" />
  <sodipodi:namedview
     id="base"
     pagecolor="#ffffff"
     bordercolor="#666666"
     borderopacity="1.0"
     inkscape:pageopacity="0.0"
     inkscape:pageshadow="2"
     inkscape:zoom="1.4"
     inkscape:cx="205.74961"
     inkscape:cy="804.25136"
     inkscape:document-units="px"
     inkscape:current-layer="layer1"
     showgrid="false"
     inkscape:window-width="1366"
     inkscape:window-height="705"
     inkscape:window-x="-8"
     inkscape:window-y="-8"
     inkscape:window-maximized="1" />
  <metadata
     id="metadata7">
    <rdf:RDF>
      <cc:Work
         rdf:about="">
        <dc:format>image/svg+xml</dc:format>
        <dc:type
           rdf:resource="http://purl.org/dc/dcmitype/StillImage" />
        <dc:title></dc:title>
      </cc:Work>
    </rdf:RDF>
  </metadata>
  <g
     inkscape:label="Layer 1"
     inkscape:groupmode="layer"
     id="layer1"
     style="display:inline">
    <ellipse
       style="display:inline;fill:#ff0000;fill-opacity:1;stroke:#000000;stroke-width:0;stroke-miterlimit:4;stroke-dasharray:none;stroke-opacity:1"
       id="path4262-3-6"
       cx="21.660744"
       cy="-266.28589"
       rx="5.8292413"
       ry="12.967142"
       transform="matrix(0.99996166,0.00875686,0.00426089,-0.99999092,0,0)"
       inkscape:export-xdpi="21.586901"
       inkscape:export-ydpi="21.586901"
       inkscape:export-filename="C:\Users\Mourjo\MyStuff\Projects\Java_and_Python_Eclipse\Alienvation\img\alienShip4.png" />
    <ellipse
       style="display:inline;fill:#ff0000;fill-opacity:1;stroke:#000000;stroke-width:0;stroke-miterlimit:4;stroke-dasharray:none;stroke-opacity:1"
       id="path4262-3-6-6"
       cx="71.626022"
       cy="-260.11264"
       rx="5.8292413"
       ry="12.967142"
       transform="matrix(0.99996166,0.00875686,0.00426089,-0.99999092,0,0)"
       inkscape:export-xdpi="21.586901"
       inkscape:export-ydpi="21.586901"
       inkscape:export-filename="C:\Users\Mourjo\MyStuff\Projects\Java_and_Python_Eclipse\Alienvation\img\alienShip4.png" />
    <ellipse
       style="display:inline;fill:#ff0000;fill-opacity:1;stroke:#000000;stroke-width:0;stroke-miterlimit:4;stroke-dasharray:none;stroke-opacity:1"
       id="path4262-3-6-4"
       cx="-29.661325"
       cy="-262.48666"
       rx="5.8292413"
       ry="12.967142"
       transform="matrix(0.99996166,0.00875686,0.00426089,-0.99999092,0,0)"
       inkscape:export-xdpi="21.586901"
       inkscape:export-ydpi="21.586901"
       inkscape:export-filename="C:\Users\Mourjo\MyStuff\Projects\Java_and_Python_Eclipse\Alienvation\img\alienShip4.png" />
    <ellipse
       style="display:inline;fill:#ff0000;fill-opacity:1;stroke:#000000;stroke-width:0;stroke-miterlimit:4;stroke-dasharray:none;stroke-opacity:1"
       id="path4262-3-6-4-2"
       cx="-74.462906"
       cy="-246.15717"
       rx="5.8292413"
       ry="12.967142"
       transform="matrix(0.99996166,0.00875686,0.00426089,-0.99999092,0,0)"
       inkscape:export-xdpi="21.586901"
       inkscape:export-ydpi="21.586901"
       inkscape:export-filename="C:\Users\Mourjo\MyStuff\Projects\Java_and_Python_Eclipse\Alienvation\img\alienShip4.png" />
    <ellipse
       style="display:inline;fill:#ff0000;fill-opacity:1;stroke:#000000;stroke-width:0;stroke-miterlimit:4;stroke-dasharray:none;stroke-opacity:1"
       id="path4262-3-6-4-5"
       cx="116.43244"
       cy="-238.92961"
       rx="5.8292413"
       ry="12.967142"
       transform="matrix(0.99996166,0.00875686,0.00426089,-0.99999092,0,0)"
       inkscape:export-xdpi="21.586901"
       inkscape:export-ydpi="21.586901"
       inkscape:export-filename="C:\Users\Mourjo\MyStuff\Projects\Java_and_Python_Eclipse\Alienvation\img\alienShip4.png" />
  </g>
  <g
     inkscape:groupmode="layer"
     id="layer2"
     inkscape:label="Layer 2"
     style="display:inline">
    <g
       id="g4173"
       style="display:inline;fill:none;fill-opacity:1;stroke:#000000;stroke-opacity:1"
       transform="matrix(0.16236076,0,0,0.16236076,-71.965406,122.41468)"
       inkscape:export-xdpi="21.586901"
       inkscape:export-ydpi="21.586901"
       inkscape:export-filename="C:\Users\Mourjo\MyStuff\Projects\Java_and_Python_Eclipse\Alienvation\img\alienShip4.png">
      <path
         transform="matrix(-0.99620886,-0.0869937,0.03752471,-0.9992957,0,0)"
         d="m -153.2522,-606.55811 c 0,278.46638 -185.51316,505.96012 -417.74425,512.277431"
         sodipodi:open="true"
         sodipodi:end="1.5481083"
         sodipodi:start="0"
         sodipodi:ry="512.4093"
         sodipodi:rx="427.44122"
         sodipodi:cy="-606.55811"
         sodipodi:cx="-580.69342"
         sodipodi:type="arc"
         id="path4144"
         style="fill:none;fill-opacity:1;stroke:#000000;stroke-width:8.04471207;stroke-miterlimit:4;stroke-dasharray:none;stroke-opacity:1" />
      <path
         transform="matrix(0.99620886,-0.0869937,-0.03752471,-0.9992957,0,0)"
         d="m 969.92841,-703.39496 c 0,278.46638 -185.51316,505.96012 -417.74426,512.27743"
         sodipodi:open="true"
         sodipodi:end="1.5481083"
         sodipodi:start="0"
         sodipodi:ry="512.4093"
         sodipodi:rx="427.44122"
         sodipodi:cy="-703.39496"
         sodipodi:cx="542.48718"
         sodipodi:type="arc"
         id="path4144-0"
         style="fill:none;fill-opacity:1;stroke:#000000;stroke-width:8.04471207;stroke-miterlimit:4;stroke-dasharray:none;stroke-opacity:1" />
      <path
         inkscape:connector-curvature="0"
         id="path4165"
         d="m 122.85714,612.3622 c 0,0 434.28572,202.85715 865.71429,2.85715"
         style="fill:none;fill-opacity:1;fill-rule:evenodd;stroke:#000000;stroke-width:11;stroke-linecap:butt;stroke-linejoin:miter;stroke-miterlimit:4;stroke-dasharray:none;stroke-opacity:1" />
    </g>
    <ellipse
       style="display:inline;fill:#ded7f5;fill-opacity:1;stroke:#000000;stroke-width:1.29738033;stroke-miterlimit:4;stroke-dasharray:none;stroke-opacity:1"
       id="path4171"
       cx="16.671314"
       cy="225.66756"
       rx="105.13621"
       ry="36.254223"
       inkscape:export-xdpi="21.586901"
       inkscape:export-ydpi="21.586901"
       inkscape:export-filename="C:\Users\Mourjo\MyStuff\Projects\Java_and_Python_Eclipse\Alienvation\img\alienShip4.png" />
    <path
       style="display:inline;fill:#cccccc;fill-opacity:1;stroke:#000000;stroke-width:5.10276747;stroke-miterlimit:4;stroke-dasharray:none;stroke-opacity:1"
       d="m 8.5115249,235.09397 c -17.0053248,-1.51145 -33.0804249,-4.74786 -47.5224129,-9.56773 -9.244202,-3.08512 -10.927472,-3.83479 -10.927472,-4.86656 0,-4.81387 2.394758,-17.00791 4.701731,-23.94115 8.610236,-25.8766 27.703482,-44.46402 50.2689939,-48.93721 5.6476001,-1.11952 18.0973171,-1.64084 23.3767471,-0.97884 9.938208,1.24615 20.738277,5.6483 28.829459,11.75102 16.630925,12.54375 27.932479,33.81816 30.587553,57.57896 0.256581,2.29625 0.468221,4.40875 0.470317,4.69451 0.0054,0.71099 -12.750796,5.73697 -20.407261,8.04063 -7.200947,2.16661 -17.150579,4.26441 -25.513835,5.37939 -5.5462,0.73942 -28.589558,1.31576 -33.8638201,0.84698 z"
       id="path4184"
       inkscape:connector-curvature="0"
       inkscape:export-xdpi="21.586901"
       inkscape:export-ydpi="21.586901"
       inkscape:export-filename="C:\Users\Mourjo\MyStuff\Projects\Java_and_Python_Eclipse\Alienvation\img\alienShip4.png" />
    <path
       style="display:inline;fill:#cccccc;fill-opacity:1;stroke:#000000;stroke-width:1.78596842;stroke-miterlimit:4;stroke-dasharray:none;stroke-opacity:1"
       d="m 8.8790074,235.13279 c -0.085196,-0.0854 -1.6117924,-0.28876 -3.3924361,-0.45236 -4.9778101,-0.45732 -6.25552852,-0.613 -9.3635588,-1.14081 -1.5833435,-0.2689 -3.0445916,-0.45267 -3.2472155,-0.40844 -0.2026231,0.0442 -0.6815307,-0.0417 -1.0642368,-0.19098 -0.7123005,-0.27788 -8.7659022,-1.8051 -10.4374802,-1.97928 -0.510276,-0.0531 -1.2409,-0.22687 -1.623607,-0.38601 -0.382709,-0.15914 -1.331522,-0.35599 -2.108477,-0.43745 -0.776956,-0.0815 -1.678029,-0.31213 -2.002387,-0.51261 -0.324359,-0.20047 -0.713208,-0.24102 -0.864112,-0.09 -0.150905,0.15091 -0.532542,0.0601 -0.848083,-0.20176 -0.315545,-0.26189 -0.75225,-0.43511 -0.970459,-0.38496 -0.21821,0.0502 -0.978048,-0.14886 -1.688529,-0.44224 -0.710481,-0.29339 -1.441104,-0.50214 -1.623607,-0.4639 -0.182503,0.0383 -0.913126,-0.1705 -1.623606,-0.46388 -0.710483,-0.29341 -1.441105,-0.50272 -1.62361,-0.46515 -0.182501,0.0375 -0.644949,-0.0685 -1.027657,-0.2356 -1.36937,-0.598 -10.205535,-3.49008 -10.205535,-3.34026 0,0.0841 -1.095933,-0.40291 -2.435411,-1.08223 -2.411058,-1.22275 -2.434875,-1.25592 -2.38175,-3.31481 0.06169,-2.39105 0.433681,-5.26903 1.103208,-8.53513 0.257107,-1.25422 0.364741,-2.38313 0.239189,-2.50869 -0.125574,-0.12554 -0.0075,-0.49433 0.262367,-0.81948 0.269862,-0.32517 0.528989,-1.33501 0.575837,-2.24408 0.04686,-0.90908 0.208521,-1.65381 0.359275,-1.65494 0.309289,-0.002 1.586416,-5.02238 1.505234,-5.91665 -0.02895,-0.31892 0.155251,-0.57987 0.409338,-0.57987 0.254086,0 0.341818,-0.31312 0.194961,-0.69584 -0.14686,-0.38269 -0.108041,-0.69581 0.08625,-0.69581 0.376762,0 2.14541,-4.83875 1.964979,-5.37588 -0.05894,-0.17544 0.06969,-0.44672 0.285836,-0.6028 0.368465,-0.26609 4.473236,-8.3621 4.495032,-8.86575 0.0056,-0.12761 0.37983,-0.62887 0.831796,-1.11399 0.451969,-0.48514 0.725806,-1.03731 0.608524,-1.22709 -0.117279,-0.18976 0.111924,-0.46979 0.509333,-0.6223 0.397411,-0.1525 0.592644,-0.4875 0.433845,-0.74444 -0.158797,-0.25694 -0.09539,-0.46717 0.140897,-0.46717 0.397787,0 2.780289,-3.26266 2.961802,-4.05598 0.04417,-0.19302 0.574971,-0.74006 1.179572,-1.21563 0.604601,-0.47557 1.010151,-0.95383 0.901223,-1.06275 -0.378532,-0.37853 10.142457,-10.17726 13.369999,-12.45218 1.785969,-1.25882 3.374929,-2.47025 3.531023,-2.69209 0.156096,-0.22183 0.419219,-0.38129 0.584722,-0.35432 0.495238,0.0808 3.2800663,-1.451 3.6472739,-2.00603 0.1874456,-0.28334 0.3440093,-0.35431 0.3479167,-0.15779 0.00384,0.19655 0.7899139,-0.0356 1.746683,-0.51593 0.9567684,-0.48032 3.2008266,-1.34735 4.9867955,-1.92674 1.78596655,-0.57939 3.4751688,-1.23259 3.7537855,-1.45156 0.2786107,-0.21895 0.6300387,-0.27465 0.7809424,-0.12372 0.1509006,0.1509 0.5443292,0.1075 0.8742822,-0.0964 0.3299561,-0.20394 1.4397801,-0.44074 2.4662762,-0.52623 1.0265,-0.0855 2.1794836,-0.28061 2.562192,-0.43353 0.3827077,-0.15295 1.4733645,-0.23459 2.4236846,-0.18144 0.950315,0.0532 1.980278,-0.0594 2.288805,-0.25004 0.654879,-0.40475 13.565965,-0.3456 16.626355,0.0762 1.148123,0.15823 2.504995,0.34578 3.015275,0.41678 0.51027,0.071 1.240898,0.24246 1.623605,0.38104 2.608408,0.94446 9.633715,3.18839 10.205534,3.25971 0.382707,0.0477 0.800207,0.21645 0.927776,0.37489 0.127569,0.15846 1.588819,0.97037 3.247216,1.8043 3.805741,1.91368 9.335746,5.6324 11.925058,8.01915 1.095374,1.00966 1.991581,1.69601 1.991581,1.52522 0,-0.17082 0.874334,0.58542 1.942982,1.68048 1.068633,1.09509 1.909852,2.12897 1.869372,2.29749 -0.04055,0.16855 0.755782,1.05572 1.769466,1.97152 1.013684,0.9158 1.747701,1.6651 1.631161,1.6651 -0.116541,0 1.023138,1.72218 2.532628,3.82709 1.50949,2.10487 3.518173,5.23614 4.463745,6.95831 0.945572,1.72218 1.905106,3.13125 2.132297,3.13125 0.227183,0 0.284052,0.20874 0.126363,0.46388 -0.157689,0.25515 -0.100421,0.46388 0.127254,0.46388 0.227667,0 0.413947,0.27573 0.413947,0.61272 0,0.33699 0.751842,2.37229 1.670773,4.52291 0.918931,2.1506 1.811351,4.48426 1.983156,5.18589 0.171812,0.70164 0.51082,1.27568 0.753355,1.27568 0.242542,0 0.333993,0.17312 0.203222,0.3847 -0.216938,0.35103 0.692769,3.96696 1.420389,5.64585 0.16586,0.38271 0.269852,0.84813 0.231092,1.03425 -0.03878,0.18613 0.24798,1.64736 0.637206,3.2472 0.389227,1.59985 0.799572,3.74381 0.911874,4.76437 0.112301,1.02055 0.327903,2.61034 0.479118,3.53287 0.151214,0.92252 0.335491,2.5275 0.409508,3.56665 0.120834,1.69633 -0.0015,1.94538 -1.189973,2.43797 -0.728503,0.30176 -1.324546,0.73208 -1.324546,0.95627 0,0.22417 -0.156567,0.37335 -0.347917,0.3315 -0.601518,-0.13149 -2.899298,0.62565 -2.899298,0.95545 0,0.17318 -0.45091,0.34884 -1.002011,0.39035 -0.5511,0.0415 -1.125171,0.24251 -1.275687,0.44663 -0.150531,0.20414 -0.482443,0.38282 -0.737573,0.39704 -1.154001,0.0644 -3.015271,0.81219 -3.015271,1.21152 0,0.24253 -0.176312,0.332 -0.391807,0.19882 -0.326475,-0.20177 -2.988537,0.62733 -6.102624,1.90068 -0.382714,0.1565 -0.904585,0.30799 -1.159723,0.33668 -1.445563,0.16248 -5.374351,1.34999 -5.582949,1.68749 -0.134941,0.21837 -0.530688,0.28753 -0.879418,0.15372 -0.348731,-0.13386 -0.773968,-0.0169 -0.944973,0.25976 -0.171006,0.27669 -0.494539,0.38959 -0.718958,0.25089 -0.376977,-0.23299 -3.945416,0.43819 -5.558395,1.04546 -0.382707,0.14407 -1.042647,0.21988 -1.466543,0.16848 -0.42389,-0.0515 -0.907999,0.12872 -1.0758,0.40014 -0.167802,0.27152 -0.476281,0.38786 -0.685507,0.25855 -0.209224,-0.12927 -1.395108,-0.0263 -2.635303,0.22863 -2.29932,0.47289 -4.231144,0.781 -7.125708,1.13656 -0.892984,0.10972 -7.886095,0.31919 -15.540248,0.46558 -7.654153,0.14637 -14.68629,0.34407 -15.626971,0.43933 -0.9406813,0.0951 -1.7800367,0.10349 -1.865233,0.0183 l 0,0 z"
       id="path4186"
       inkscape:connector-curvature="0"
       inkscape:export-xdpi="21.586901"
       inkscape:export-ydpi="21.586901"
       inkscape:export-filename="C:\Users\Mourjo\MyStuff\Projects\Java_and_Python_Eclipse\Alienvation\img\alienShip4.png" />
    <path
       style="display:inline;fill:#cccccc;fill-opacity:1;stroke:#000000;stroke-width:1.78596842;stroke-miterlimit:4;stroke-dasharray:none;stroke-opacity:1"
       d="m 8.3556631,235.07387 c -0.042592,-0.0428 -1.6427657,-0.22986 -3.5559277,-0.41547 -1.9131575,-0.18562 -3.89597198,-0.37853 -4.4062499,-0.42872 -0.51027715,-0.0502 -1.7627737,-0.23425 -2.7833287,-0.40907 -1.020552,-0.1748 -2.6905494,-0.41729 -3.7111014,-0.53887 -1.0205536,-0.12151 -3.9430464,-0.6396 -6.4944324,-1.15115 -2.551383,-0.51156 -5.265127,-1.02095 -6.030543,-1.13198 -0.765414,-0.11096 -2.09982,-0.41624 -2.965345,-0.67824 -0.865522,-0.26198 -1.738284,-0.37459 -1.939469,-0.25025 -0.201184,0.12427 -0.505703,-3.2e-4 -0.67671,-0.27702 -0.171007,-0.2767 -0.596243,-0.3936 -0.944973,-0.25978 -0.34873,0.13386 -0.760854,0.0381 -0.915833,-0.21262 -0.15498,-0.25076 -0.526977,-0.41745 -0.826661,-0.37046 -0.299682,0.047 -0.858003,-0.0495 -1.240711,-0.21423 -0.382708,-0.16487 -1.113331,-0.37516 -1.623609,-0.46738 -0.510276,-0.0923 -1.240899,-0.30095 -1.623608,-0.46388 -0.382706,-0.16293 -1.113331,-0.37113 -1.623607,-0.46267 -0.510275,-0.0916 -1.449649,-0.37333 -2.087495,-0.6262 -0.637846,-0.25288 -3.038465,-1.04338 -5.334712,-1.75668 -2.296246,-0.71328 -5.323115,-1.84299 -6.726375,-2.51044 -2.542014,-1.20908 -2.551303,-1.22119 -2.530471,-3.30103 0.02222,-2.21971 0.420402,-5.39771 1.104281,-8.81388 0.229853,-1.14811 0.333455,-2.17265 0.230242,-2.27673 -0.103213,-0.10403 0.0089,-0.42624 0.249355,-0.71587 0.24036,-0.2896 0.511835,-1.25584 0.603275,-2.14718 0.09144,-0.89136 0.283347,-1.82172 0.426458,-2.06749 0.143112,-0.24578 0.522358,-1.595 0.842768,-2.99824 0.320413,-1.40327 0.694818,-2.86452 0.832012,-3.24723 0.137198,-0.38271 0.280161,-0.8002 0.317696,-0.92777 0.03754,-0.12762 0.396019,-0.98075 0.796625,-1.89597 0.400608,-0.9152 0.879031,-2.16771 1.063161,-2.78332 0.482201,-1.61218 5.003142,-10.71725 5.690273,-11.46008 0.318924,-0.34477 0.57986,-0.92509 0.57986,-1.28956 0,-0.36447 0.208749,-0.6627 0.463888,-0.6627 0.255138,0 0.463889,-0.21787 0.463889,-0.48414 0,-0.26625 0.501804,-1.0253 1.115119,-1.68674 0.613315,-0.66142 1.396126,-1.74827 1.739579,-2.41515 0.343453,-0.66692 0.989773,-1.48535 1.436265,-1.81873 0.446492,-0.33341 0.811804,-0.77329 0.811804,-0.97756 0,-1.27564 16.539118,-15.80598 18.000003,-15.81382 0.177962,-0.002 1.054193,-0.46177 1.947177,-1.02405 1.714112,-1.07929 2.1033006,-1.24729 8.3499828,-3.60405 4.2483269,-1.60281 4.9385657,-1.79982 7.4222082,-2.1186 0.8929848,-0.11458 2.1454805,-0.33572 2.7833264,-0.49132 1.7835375,-0.43513 4.6768856,-0.58045 12.7569176,-0.64072 6.530916,-0.0487 8.614874,0.0667 12.524973,0.69407 0.510276,0.0818 3.380586,0.9777 6.378457,1.99074 2.997879,1.01303 5.453887,1.70929 5.457787,1.54725 0.0038,-0.16205 0.160468,-0.0668 0.347915,0.21168 0.187452,0.27847 2.107574,1.42087 4.266938,2.53864 2.159364,1.11778 5.581302,3.29057 7.604307,4.82839 2.023006,1.53785 4.124906,3.10921 4.670899,3.49192 1.592539,1.11627 5.147099,4.74095 5.033938,5.13324 -0.05698,0.1975 0.621463,0.99567 1.507632,1.77373 0.886169,0.77806 1.611224,1.53431 1.611224,1.6806 0,0.14624 0.800078,1.35294 1.777952,2.68153 0.97788,1.32857 2.900158,4.29434 4.27172,6.59059 1.371569,2.29624 2.660289,4.24501 2.863818,4.33057 0.203522,0.0856 0.252042,0.34653 0.107832,0.57986 -0.144219,0.23336 -0.04116,0.42428 0.229049,0.42428 0.270197,0 0.491275,0.24923 0.491275,0.55385 0,0.76348 3.70301,10.21141 4.282864,10.92738 0.258286,0.31891 0.350927,0.57986 0.205864,0.57986 -0.237167,0 0.720301,3.81904 1.395606,5.56664 0.14789,0.38272 0.329386,1.11334 0.40335,1.62362 0.07396,0.51028 0.376746,1.97152 0.672863,3.24721 0.296124,1.27569 0.614543,2.84131 0.707614,3.47916 1.360411,9.32416 1.358875,9.36552 -0.388412,10.49587 -0.838424,0.5424 -2.193113,1.13303 -3.010417,1.31256 -0.817312,0.1795 -1.486013,0.47411 -1.486013,0.65467 0,0.18059 -0.450903,0.36228 -1.002003,0.4038 -0.551108,0.0415 -1.125172,0.24251 -1.275695,0.44663 -0.150531,0.20414 -0.691187,0.44424 -1.201462,0.53355 -0.510275,0.0893 -1.345274,0.3924 -1.855549,0.67353 -0.510274,0.28112 -1.179574,0.55356 -1.487318,0.60539 -1.253823,0.2112 -5.510314,1.72788 -6.050863,2.15602 -0.318925,0.25263 -0.579853,0.34065 -0.579853,0.19557 0,-0.24191 -3.932436,0.7509 -5.566653,1.4054 -0.382714,0.15327 -0.904585,0.31925 -1.15973,0.36883 -0.255138,0.0495 -0.568265,0.13607 -0.695826,0.19211 -0.127577,0.0561 -0.949735,0.19482 -1.827041,0.30828 -0.877299,0.11347 -2.442921,0.44518 -3.479156,0.73712 -2.104503,0.59291 -2.490072,0.67165 -5.131284,1.04773 -1.020552,0.14531 -2.37743,0.38861 -3.015275,0.54066 -0.637845,0.15207 -1.890338,0.37744 -2.783321,0.50084 -0.892989,0.12346 -2.145482,0.31066 -2.783334,0.4161 -0.637845,0.10541 -2.881898,0.19405 -4.986793,0.19686 -2.104889,0.003 -3.827425,0.16117 -3.82785,0.35191 -4.88e-4,0.27856 -24.9313593,0.54442 -25.2050349,0.2688 z"
       id="path4188"
       inkscape:connector-curvature="0"
       inkscape:export-xdpi="21.586901"
       inkscape:export-ydpi="21.586901"
       inkscape:export-filename="C:\Users\Mourjo\MyStuff\Projects\Java_and_Python_Eclipse\Alienvation\img\alienShip4.png" />
    <path
       style="display:inline;fill:#cccccc;fill-opacity:1;stroke:#000000;stroke-width:1.78596842;stroke-miterlimit:4;stroke-dasharray:none;stroke-opacity:1"
       d="m 5.0323649,234.89384 c -2.041107,-0.20518 -5.06797597,-0.59688 -6.7263754,-0.87044 -1.6583986,-0.2736 -3.7458938,-0.59039 -4.6388794,-0.70402 -0.8929833,-0.11361 -3.8154771,-0.62753 -6.4944301,-1.14202 -2.678953,-0.51447 -5.392698,-1.02859 -6.030543,-1.1425 -0.637847,-0.11388 -1.472845,-0.32022 -1.855553,-0.45851 -0.382707,-0.1383 -1.32208,-0.35333 -2.087494,-0.4779 -0.765417,-0.12456 -1.861352,-0.3432 -2.435413,-0.48582 -0.574061,-0.14265 -1.40906,-0.34521 -1.855551,-0.45011 -0.446492,-0.10486 -1.385866,-0.41287 -2.087497,-0.68436 -0.70163,-0.27147 -1.27569,-0.40504 -1.27569,-0.29681 0,0.1082 -0.782813,-0.13024 -1.739581,-0.53005 -0.956768,-0.39975 -1.739579,-0.67098 -1.739579,-0.6027 0,0.32039 -11.404129,-3.62069 -13.45275,-4.64906 l -2.31944,-1.16429 0.04633,-2.92462 c 0.04647,-2.93236 0.800633,-8.18532 1.611454,-11.22398 0.238277,-0.89299 0.536679,-2.14549 0.663118,-2.78334 0.583274,-2.94249 2.183225,-8.29925 2.998252,-10.03837 0.494974,-1.05618 1.025687,-2.41304 1.179361,-3.01526 0.153675,-0.60223 1.523506,-3.49557 3.044069,-6.42965 1.520563,-2.93408 2.890183,-5.70002 3.043598,-6.14653 0.153415,-0.44647 0.46334,-0.81179 0.688719,-0.81179 0.225385,0 0.409786,-0.27376 0.409786,-0.60836 0,-0.3346 0.382002,-1.0184 0.848898,-1.51953 0.466892,-0.50117 1.246074,-1.53209 1.731515,-2.29096 0.485442,-0.75885 1.251562,-1.65253 1.702488,-1.98591 0.450925,-0.33341 0.819866,-0.79887 0.819866,-1.03442 0,-1.41839 15.667661,-15.07753 18.442712,-16.07842 0.444751,-0.16042 1.33051,-0.64095 1.968356,-1.06785 1.6492433,-1.1038 12.3986687,-5.03542 14.6124708,-5.3445 1.0205536,-0.14249 2.4634862,-0.37931 3.2065188,-0.52626 3.6321074,-0.71832 18.4235004,-0.96432 23.1398854,-0.38486 2.911261,0.3577 13.279436,3.60543 15.867401,4.97031 4.025796,2.12319 9.88874,5.81967 12.717149,8.01793 4.241277,3.29635 7.925864,6.75572 7.925864,7.4414 0,0.32302 0.575276,1.07556 1.278398,1.6723 1.66168,1.41028 10.065556,14.11259 10.197709,15.41364 0.02296,0.22662 0.223075,0.53974 0.444582,0.69584 0.221508,0.15609 1.005674,1.84943 1.742602,3.76297 0.736936,1.91354 1.656781,4.20977 2.044118,5.10276 0.387329,0.89298 0.743018,1.78016 0.790418,1.97151 0.04738,0.19136 0.124289,0.40011 0.170898,0.4639 0.13233,0.18114 1.856493,6.4751 2.128541,7.77011 1.62603,7.74051 1.505481,7.10278 1.929251,10.20554 0.191649,1.40328 0.35565,3.44789 0.364421,4.54363 0.01728,2.1551 -0.141585,2.29504 -5.086806,4.48075 -1.020549,0.45107 -2.218033,1.00574 -2.661056,1.23261 -0.443039,0.22683 -1.141453,0.41242 -1.552037,0.41242 -0.410583,0 -1.300608,0.28056 -1.977825,0.62345 -1.605703,0.81299 -6.424653,2.45531 -10.509048,3.58153 -1.785962,0.49246 -3.664711,1.01263 -4.174993,1.15594 -0.510275,0.14332 -1.554026,0.36616 -2.319438,0.49522 -0.765412,0.12899 -2.225852,0.45174 -3.245402,0.71704 -2.023037,0.52647 -3.098938,0.75801 -4.872637,1.04865 -2.158053,0.35364 -5.333372,0.90494 -5.566655,0.96649 -1.070956,0.28258 -5.944467,0.76811 -8.581924,0.85499 -13.69526,0.45121 -29.3834077,0.58275 -32.4721594,0.27227 z"
       id="path4190"
       inkscape:connector-curvature="0"
       inkscape:export-xdpi="21.586901"
       inkscape:export-ydpi="21.586901"
       inkscape:export-filename="C:\Users\Mourjo\MyStuff\Projects\Java_and_Python_Eclipse\Alienvation\img\alienShip4.png" />
    <path
       style="display:inline;fill:#cccccc;fill-opacity:1;stroke:#000000;stroke-width:1.78596842;stroke-miterlimit:4;stroke-dasharray:none;stroke-opacity:1"
       d="m 6.8879172,235.0868 c -2.2641968,-0.20846 -13.1826417,-1.60398 -14.1485828,-1.80839 -0.382707,-0.081 -2.8877014,-0.56197 -5.5666544,-1.06887 -8.294197,-1.56938 -8.575621,-1.62309 -8.813872,-1.68151 -0.127571,-0.0312 -1.060717,-0.22212 -2.073664,-0.42407 -1.012947,-0.20194 -2.682945,-0.63211 -3.711105,-0.95593 -1.028158,-0.32384 -2.808754,-0.85996 -3.956878,-1.19139 -5.175439,-1.49406 -15.485234,-5.11682 -16.834926,-5.91564 -1.467344,-0.86846 -1.48738,-0.92766 -1.400191,-4.13868 0.166516,-6.13302 2.717627,-17.60234 5.452922,-24.51538 1.668639,-4.21721 7.184572,-15.24896 7.72404,-15.44791 0.230602,-0.0851 0.421303,-0.39818 0.42378,-0.69585 0.0047,-0.57109 2.570377,-4.06253 4.159355,-5.66027 0.516401,-0.51926 0.93891,-1.16611 0.93891,-1.43746 0,-0.66304 8.686987,-8.77476 12.834059,-11.98416 5.419823,-4.19436 8.6491375,-5.84162 17.31865603,-8.83415 4.03741647,-1.39364 5.36727747,-1.68522 10.90136597,-2.39009 3.100446,-0.39492 19.342847,-0.21788 21.570789,0.23512 4.81311,0.97859 13.487981,4.16415 17.697834,6.49895 2.46236,1.36562 6.665349,4.13417 9.339967,6.1523 4.374967,3.30111 5.942301,4.80906 9.828781,9.45636 4.040958,4.83202 10.193539,14.91119 12.073279,19.77845 0.890608,2.30608 1.77369,4.43555 1.962412,4.73219 0.188731,0.29661 0.364367,0.64368 0.390302,0.77125 0.02588,0.12763 0.184898,0.54508 0.353239,0.92777 1.845987,4.19688 5.525213,23.38361 4.822905,25.15092 -0.130019,0.32718 -0.937754,0.94701 -1.79497,1.3774 -2.829905,1.42084 -6.912411,3.1605 -7.416795,3.1605 -0.272801,0 -1.153794,0.28826 -1.957774,0.64054 -1.683061,0.7375 -7.55053,2.72132 -10.275644,3.47423 -1.02055,0.28197 -2.899291,0.805 -4.174993,1.16231 -5.818074,1.62952 -18.978885,3.87951 -24.354111,4.16362 -6.255492,0.33063 -29.0961416,0.67189 -31.3124358,0.46784 z"
       id="path4192"
       inkscape:connector-curvature="0"
       inkscape:export-xdpi="21.586901"
       inkscape:export-ydpi="21.586901"
       inkscape:export-filename="C:\Users\Mourjo\MyStuff\Projects\Java_and_Python_Eclipse\Alienvation\img\alienShip4.png" />
    <path
       style="display:inline;fill:#cccccc;fill-opacity:1;stroke:#000000;stroke-width:1.78596842;stroke-miterlimit:4;stroke-dasharray:none;stroke-opacity:1"
       d="m 6.6559742,235.09467 c -13.4757702,-1.56534 -21.1991512,-2.87948 -31.5443812,-5.36734 -7.882349,-1.89554 -22.308902,-6.72941 -23.921579,-8.0153 l -1.313578,-1.04744 0.552481,-4.70886 c 0.778731,-6.63731 2.242263,-13.39965 4.128206,-19.07462 2.653492,-7.98461 8.934941,-20.03974 13.170638,-25.27663 2.263231,-2.79819 9.117529,-9.38869 13.078541,-12.57517 5.076806,-4.08409 8.698463,-6.11009 15.5812894,-8.71642 8.3683055,-3.16882 11.4953786,-3.64903 23.6152916,-3.62645 10.671407,0.0198 11.183303,0.0892 18.893299,2.55869 13.120439,4.20247 25.307206,13.10951 32.541099,23.78356 4.902636,7.23415 7.645759,11.92361 9.068215,15.50244 0.760551,1.91353 1.76505,4.31818 2.23221,5.34369 2.095219,4.59941 5.032379,18.02644 5.219604,23.8611 l 0.110996,3.45901 -3.015271,1.49079 c -1.658401,0.81993 -3.85027,1.75146 -4.870819,2.07006 -1.020558,0.31862 -2.703849,0.949 -3.740641,1.40089 -7.800745,3.39986 -27.535196,7.80776 -38.009281,8.48976 -5.103267,0.33227 -29.7781557,0.68035 -31.776319,0.44824 z"
       id="path4194"
       inkscape:connector-curvature="0"
       inkscape:export-xdpi="21.586901"
       inkscape:export-ydpi="21.586901"
       inkscape:export-filename="C:\Users\Mourjo\MyStuff\Projects\Java_and_Python_Eclipse\Alienvation\img\alienShip4.png" />
    <path
       style="display:inline;fill:#cccccc;fill-opacity:1;stroke:#000000;stroke-width:1.78596842;stroke-miterlimit:4;stroke-dasharray:none;stroke-opacity:1"
       d="m 6.4240289,235.10359 c -0.7654146,-0.10792 -4.1054086,-0.52342 -7.42220738,-0.92346 -7.42682292,-0.89581 -16.23898052,-2.51705 -23.89022852,-4.39527 -8.162514,-2.00374 -22.262244,-6.74973 -23.876475,-8.03688 l -1.35537,-1.08073 0.581056,-5.0507 c 1.221082,-10.61404 3.956296,-20.09451 8.483621,-29.40486 5.057317,-10.40025 9.415288,-16.27908 17.225839,-23.23732 8.071348,-7.1906 13.212378,-10.34159 21.7762684,-13.34688 6.9031115,-2.42249 11.003761,-2.96561 22.1621906,-2.93533 10.7552,0.0293 11.815308,0.1751 19.36411,2.66565 12.738492,4.20276 25.036655,13.30805 32.012316,23.70127 7.182823,10.70186 9.646548,15.54138 12.664722,24.87738 2.217872,6.86045 4.69744,20.97211 4.003004,22.78174 -0.3343,0.87123 -4.879843,2.97699 -11.987741,5.55353 -10.635549,3.85524 -21.578324,6.48649 -32.862013,7.90186 -5.522895,0.69277 -33.5472778,1.39948 -36.8790921,0.93 z"
       id="path4196"
       inkscape:connector-curvature="0"
       inkscape:export-xdpi="21.586901"
       inkscape:export-ydpi="21.586901"
       inkscape:export-filename="C:\Users\Mourjo\MyStuff\Projects\Java_and_Python_Eclipse\Alienvation\img\alienShip4.png" />
    <path
       style="display:inline;fill:#cccccc;fill-opacity:1;stroke:#000000;stroke-width:1.78596842;stroke-miterlimit:4;stroke-dasharray:none;stroke-opacity:1"
       d="m 5.7281962,235.09627 c -14.418093,-1.78957 -23.2957532,-3.3877 -33.1679872,-5.97082 -7.790629,-2.03847 -19.483433,-6.03838 -21.177001,-7.24429 -1.577351,-1.1232 -1.63783,-1.99 -0.619697,-8.88299 2.788857,-18.88116 10.630516,-35.45001 22.227776,-46.9656 10.878728,-10.80213 20.5060195,-16.20502 33.1807993,-18.62123 5.9681957,-1.13772 23.0719397,-0.98731 27.8532757,0.24494 5.361939,1.38191 10.543246,3.34546 14.532115,5.50722 1.996914,1.08224 3.806077,1.96771 4.020362,1.96771 0.214291,0 0.459195,0.15655 0.544246,0.3479 0.08504,0.19136 1.720244,1.39167 3.633785,2.66735 7.170401,4.78027 14.329024,13.23211 21.217067,25.04996 4.210674,7.22427 8.073046,19.33632 9.644858,30.24538 1.069808,7.42496 1.049979,7.49675 -2.56476,9.28568 -9.702902,4.80196 -29.688816,10.21529 -43.160184,11.69024 -4.55761,0.49903 -33.2706513,1.03774 -36.1646548,0.67855 z"
       id="path4198"
       inkscape:connector-curvature="0"
       inkscape:export-xdpi="21.586901"
       inkscape:export-ydpi="21.586901"
       inkscape:export-filename="C:\Users\Mourjo\MyStuff\Projects\Java_and_Python_Eclipse\Alienvation\img\alienShip4.png" />
    <path
       style="display:inline;fill:#cccccc;fill-opacity:1;stroke:#000000;stroke-width:1.78596842;stroke-miterlimit:4;stroke-dasharray:none;stroke-opacity:1"
       d="M 0.16154176,234.44264 C -9.7614217,233.08811 -16.34889,231.86113 -24.656461,229.82006 -33.372917,227.67852 -46.68528,223.2565 -48.669674,221.8435 l -1.389629,-0.9895 0.308665,-3.75245 c 0.804075,-9.77559 4.023127,-21.23918 8.674073,-30.88986 5.189205,-10.76755 10.341352,-17.4436 19.488631,-25.253 9.688844,-8.27175 19.9788011,-12.8713 31.4911221,-14.07637 6.0066029,-0.62876 19.6559429,-0.29649 23.3894499,0.56937 6.877644,1.59504 16.286449,5.60103 21.570532,9.1841 8.722157,5.9144 14.955622,12.91279 22.211379,24.93702 4.694507,7.77973 8.756892,19.97072 10.535789,31.61732 1.139018,7.45727 1.061483,7.74643 -2.557303,9.53735 -9.728744,4.81476 -29.686947,10.21475 -43.239155,11.69905 -2.477476,0.27137 -11.349333,0.59257 -19.715235,0.71384 -13.3889843,0.19405 -16.0163245,0.11055 -21.93710324,-0.69773 z"
       id="path4200"
       inkscape:connector-curvature="0"
       inkscape:export-xdpi="21.586901"
       inkscape:export-ydpi="21.586901"
       inkscape:export-filename="C:\Users\Mourjo\MyStuff\Projects\Java_and_Python_Eclipse\Alienvation\img\alienShip4.png" />
    <path
       style="display:inline;fill:#cccccc;fill-opacity:1;stroke:#000000;stroke-width:1.78596842;stroke-miterlimit:4;stroke-dasharray:none;stroke-opacity:1"
       d="m 5.4962532,235.10688 c -0.7654138,-0.11194 -3.8966593,-0.52778 -6.9583184,-0.92397 -14.9106758,-1.9295 -28.9073548,-5.28717 -42.4457458,-10.18228 -4.925002,-1.78076 -6.031199,-2.65586 -6.027806,-4.76851 0.0085,-5.2506 2.725009,-17.89474 5.37303,-25.00817 4.479356,-12.03298 9.970755,-20.69614 18.374121,-28.98676 10.258326,-10.12068 19.2995797,-15.17141 31.9166622,-17.82965 4.8712328,-1.02628 22.1677398,-1.15014 26.6735548,-0.19099 4.402417,0.93714 11.665903,3.57298 16.214672,5.88415 11.080397,5.62982 18.861804,13.03775 26.433623,25.16491 4.21757,6.75493 6.17327,10.88304 8.599341,18.15161 2.75131,8.24298 5.329863,22.14751 4.505554,24.29562 -0.881952,2.29834 -20.893898,9.16593 -34.58,11.86703 -9.555226,1.8858 -14.992178,2.32949 -31.032973,2.5325 -8.609727,0.10903 -16.2802995,0.10654 -17.0457148,-0.005 l 0,1e-5 z"
       id="path4202"
       inkscape:connector-curvature="0"
       inkscape:export-xdpi="21.586901"
       inkscape:export-ydpi="21.586901"
       inkscape:export-filename="C:\Users\Mourjo\MyStuff\Projects\Java_and_Python_Eclipse\Alienvation\img\alienShip4.png" />
    <ellipse
       style="display:inline;fill:#ffff00;fill-opacity:1;stroke:#000000;stroke-width:1.26690114000000010;stroke-miterlimit:4;stroke-dasharray:none;stroke-opacity:1"
       id="path4208"
       cx="-69.540817"
       cy="221.76924"
       rx="7.4222064"
       ry="6.494431"
       inkscape:export-xdpi="21.586901"
       inkscape:export-ydpi="21.586901"
       inkscape:export-filename="C:\Users\Mourjo\MyStuff\Projects\Java_and_Python_Eclipse\Alienvation\img\alienShip4.png" />
    <ellipse
       style="display:inline;fill:#ffff00;fill-opacity:1;stroke:#000000;stroke-width:1.26690114000000010;stroke-miterlimit:4;stroke-dasharray:none;stroke-opacity:1"
       id="path4208-7"
       cx="-36.38969"
       cy="241.53664"
       rx="7.4222064"
       ry="6.494431"
       inkscape:export-xdpi="21.586901"
       inkscape:export-ydpi="21.586901"
       inkscape:export-filename="C:\Users\Mourjo\MyStuff\Projects\Java_and_Python_Eclipse\Alienvation\img\alienShip4.png" />
    <ellipse
       style="display:inline;fill:#ffff00;fill-opacity:1;stroke:#000000;stroke-width:1.26690114000000010;stroke-miterlimit:4;stroke-dasharray:none;stroke-opacity:1"
       id="path4208-8"
       cx="16.103464"
       cy="249.10254"
       rx="7.4222064"
       ry="6.494431"
       inkscape:export-xdpi="21.586901"
       inkscape:export-ydpi="21.586901"
       inkscape:export-filename="C:\Users\Mourjo\MyStuff\Projects\Java_and_Python_Eclipse\Alienvation\img\alienShip4.png" />
    <ellipse
       style="display:inline;fill:#ffff00;fill-opacity:1;stroke:#000000;stroke-width:1.26690114000000010;stroke-miterlimit:4;stroke-dasharray:none;stroke-opacity:1"
       id="path4208-9"
       cx="70.735504"
       cy="243.28546"
       rx="7.4222064"
       ry="6.494431"
       inkscape:export-xdpi="21.586901"
       inkscape:export-ydpi="21.586901"
       inkscape:export-filename="C:\Users\Mourjo\MyStuff\Projects\Java_and_Python_Eclipse\Alienvation\img\alienShip4.png" />
    <ellipse
       style="display:inline;fill:#ffff00;fill-opacity:1;stroke:#000000;stroke-width:1.26690114000000010;stroke-miterlimit:4;stroke-dasharray:none;stroke-opacity:1"
       id="path4208-2"
       cx="105.77511"
       cy="223.55576"
       rx="7.4222064"
       ry="6.494431"
       inkscape:export-xdpi="21.586901"
       inkscape:export-ydpi="21.586901"
       inkscape:export-filename="C:\Users\Mourjo\MyStuff\Projects\Java_and_Python_Eclipse\Alienvation\img\alienShip4.png" />
  </g>
</svg>
