<?xml version="1.0"?><svg width="744.09448819" height="1052.3622047" xmlns="http://www.w3.org/2000/svg">
 <title>airplane</title>
 <g>
  <title>Layer 1</title>
  <g externalResourcesRequired="false" id="layer1">
   <path id="path1368" transform="rotate(-30 365.099 488.682)" d="m345.271454,542.565247c-0.0849,-0.241272 -0.52121,-0.297668 -2.30246,-0.297668c-1.20874,0 -2.197723,-0.046082 -2.197723,-0.102417c0,-0.056335 0.592377,-0.930298 1.316406,-1.942017c2.371643,-3.314209 4.894196,-7.184082 4.894196,-7.508179c0,-0.174744 0.411011,-0.940247 0.9133,-1.70105c0.984314,-1.490845 1.060669,-1.693054 0.639313,-1.693054c-0.4664,0 -0.30307,-0.309448 0.339813,-0.643677c0.479919,-0.249634 1.01767,-1.015991 2.465973,-3.514465c1.018677,-1.757324 1.852203,-3.243652 1.852203,-3.302979c0,-0.059265 -0.169281,-0.107727 -0.376099,-0.107727c-0.51767,0 -0.292114,-0.32074 0.32663,-0.464539c0.396301,-0.092041 0.781769,-0.577637 1.776093,-2.237305c1.241577,-2.072327 2.026367,-2.96283 2.735687,-3.103943c0.570313,-0.113403 0.428436,-0.463135 -0.215393,-0.530823c-0.637451,-0.067017 -0.725616,-0.211975 -0.366821,-0.603149c0.180634,-0.197021 0.171509,-0.284607 -0.044769,-0.430359c-0.23172,-0.156189 -0.218079,-0.227112 0.092865,-0.483337c0.256989,-0.211792 0.287109,-0.302124 0.102173,-0.306641c-0.144196,-0.003479 -0.442413,0.178284 -0.66272,0.403992l-0.400513,0.410217l0.420502,-2.551422c0.904266,-5.486725 1.000214,-5.851471 1.782349,-6.776703c0.493378,-0.583679 0.639557,-0.875092 0.468018,-0.933167c-0.137177,-0.046417 -1.071381,-0.282867 -2.07605,-0.52536c-1.004639,-0.242584 -2.566437,-0.730499 -3.470612,-1.08432c-0.904205,-0.353821 -2.013885,-0.787048 -2.465973,-0.962677c-0.470306,-0.18277 -3.127502,-0.575012 -6.210602,-0.916809c-6.408661,-0.71048 -8.529602,-1.191254 -17.243805,-3.908936l-6.009979,-1.874298l-6.617523,5.771362c-7.467804,6.512817 -6.673065,6.061279 -9.528015,5.413635l-1.496429,-0.339478l3.733063,-7.26123c2.053192,-3.993652 3.671844,-7.323273 3.597046,-7.399048c-0.074799,-0.075775 -1.167297,-0.597412 -2.427734,-1.159149l-2.291748,-1.021362l0.071594,-0.669098l0.071655,-0.669128l2.44928,-0.143066c1.347076,-0.078644 2.493042,-0.220276 2.54657,-0.314697c0.053528,-0.094482 -1.145599,-4.439789 -2.664734,-9.656342c-1.519165,-5.216583 -2.727112,-9.522736 -2.684387,-9.569336c0.042725,-0.0466 0.851044,0.00412 1.796265,0.11264c0.945221,0.108551 1.889862,0.198914 2.099121,0.200867c0.291595,0.002594 1.290527,1.434631 4.274689,6.128204c2.141754,3.368622 4.088287,6.411743 4.325562,6.76239c0.237244,0.350647 1.834961,1.72583 3.550385,3.055939l3.118958,2.418365l4.6875,0.183624c5.226685,0.204834 8.103973,0.465637 16.381897,1.484711c5.382507,0.662598 12.73468,1.459564 12.824219,1.390015c0.022919,-0.017792 0.119659,-1.533478 0.214966,-3.368164c0.101135,-1.946838 0.261047,-3.451141 0.383942,-3.612671c0.204041,-0.268066 0.831879,-0.530182 1.871124,-0.781036c0.627594,-0.15152 0.65976,-0.512054 0.045654,-0.512054c-0.455353,0 -0.456665,-0.005402 -0.456665,-1.910828c0,-1.709595 -0.03656,-1.921295 -0.346924,-2.009796c-0.27063,-0.077179 -0.453339,-0.565735 -0.831055,-2.222137c-0.877411,-3.847992 -0.761963,-3.558533 -1.477356,-3.704895c-0.715485,-0.146332 -0.688904,-0.509735 0.037292,-0.509735c0.389709,0 0.449951,-0.073059 0.369324,-0.448151c-0.05304,-0.24646 -0.57486,-2.727173 -1.159576,-5.512634l-1.063171,-5.064484l-0.685059,-0.313385c-0.827576,-0.378662 -0.881256,-0.612183 -0.140747,-0.612183c0.301392,0 0.548004,-0.056061 0.548004,-0.124573c0,-0.068512 -0.341187,-1.695618 -0.758148,-3.615814c-0.69455,-3.198608 -0.732819,-3.511414 -0.456665,-3.731598c0.337097,-0.268768 0.399445,-0.804108 0.115845,-0.995209c-0.102112,-0.068787 -0.143066,-0.200195 -0.091034,-0.292023c0.0914,-0.161255 -1.214783,-4.950012 -3.307098,-12.124542c-0.554291,-1.900543 -0.981598,-3.480865 -0.949615,-3.511841c0.12323,-0.119507 4.440582,1.684143 4.500488,1.880219c0.034821,0.113922 0.163422,0.207184 0.285736,0.207184c0.122284,0 0.397491,0.393005 0.611511,0.873444c0.480713,1.078857 7.346466,14.821899 15.33548,30.696625c3.307861,6.572998 6.068787,12.107758 6.135406,12.299438c0.158844,0.457336 1.272369,0.472137 1.615326,0.021545c0.216583,-0.284546 0.546753,-0.310608 2.541687,-0.2005c3.336914,0.184143 5.220612,0.489502 6.61853,1.072968c0.926819,0.386871 1.21405,0.594788 1.148987,0.831665c-0.04776,0.173737 -0.257813,1.436279 -0.466797,2.805695c-0.208984,1.369385 -0.42334,2.646576 -0.476318,2.838318c-0.165192,0.5979 -2.706116,0.450714 -6.448029,-0.373444c-0.580292,-0.127808 -0.615143,-0.106537 -0.514557,0.312988c0.207825,0.866516 2.418152,4.845947 2.780457,5.005951c0.201202,0.088806 4.18808,0.618744 8.859741,1.177673c14.440125,1.727539 17.03479,2.187286 21.922638,3.884308c4.201294,1.458618 8.995331,4.30426 10.516907,6.242676c0.528931,0.673737 0.572327,0.815155 0.38147,1.243042c-0.463776,1.039764 -3.670013,2.333649 -7.430634,2.998718c-1.789124,0.316406 -10.973938,0.313873 -13.517181,-0.003815c-1.054901,-0.131744 -5.329224,-0.692139 -9.498566,-1.245331c-8.007019,-1.062408 -10.332947,-1.162994 -12.180725,-0.527069c-0.975739,0.335785 -1.048065,0.42572 -0.755432,0.938873c0.216858,0.380432 0.186157,0.469666 -0.307007,0.892181c-1.511505,1.295013 -6.960175,6.384155 -7.087372,6.619812c-0.11972,0.221741 0.25354,0.430481 2.035461,0.270508c1.820587,-0.163391 5.454529,0.428833 6.016785,0.60498c1.547485,0.484619 1.680481,0.362305 1.399811,2.685974c-0.132019,1.093079 -0.332001,2.445557 -0.444427,3.005676c-0.183716,0.889648 -0.834229,1.059082 -1.782135,1.125549c-1.544647,0.105164 -4.48407,-0.2229 -5.618073,-0.626953c-0.301422,-0.107361 -1.023926,-0.339294 -1.605591,-0.515381c-0.801483,-0.242554 -1.097839,-0.435547 -1.223846,-0.796875c-0.121124,-0.347473 -0.441193,-0.57135 -1.180023,-0.825256c-0.557617,-0.19165 -1.013855,-0.455566 -1.013855,-0.586426c0,-0.130981 -0.117737,-0.344604 -0.261658,-0.474854c-0.213776,-0.19342 -0.706787,0.196167 -2.694305,2.12915c-3.316986,3.226013 -22.882172,21.11377 -23.648254,21.620605c-0.115051,0.076172 -0.256317,0.004578 -0.313904,-0.159119z" fill="#007fff"/>
  </g>
 </g>
</svg>